<svg xmlns="http://www.w3.org/2000/svg" width="150" height="150" viewBox="0 0 150 150">
<g>
<path d="M 60.49,148.54 C45.95,145.90 33.32,139.17 21.95,128.00 C13.27,119.47 7.42,110.21 3.31,98.50 C0.70,91.04 0.51,89.45 0.54,75.00 C0.56,60.68 0.78,58.89 3.34,51.50 C7.32,40.02 13.27,30.60 21.97,22.00 C37.72,6.42 56.91,-0.86 79.00,0.37 C90.20,0.99 99.38,3.60 110.50,9.31 C121.55,14.99 134.79,28.23 140.68,39.50 C147.03,51.65 149.00,60.05 149.00,75.02 C149.00,90.14 147.66,96.10 141.35,108.94 C133.36,125.24 116.39,140.14 99.26,145.91 C87.25,149.96 73.42,150.90 60.49,148.54 M 61.65,92.21 C67.89,80.50 72.99,70.38 72.98,69.71 C72.97,69.05 70.09,63.14 66.59,56.58 L 60.22,44.66 L 58.06,48.88 C56.87,51.21 48.72,66.60 39.95,83.09 C31.18,99.58 24.00,113.39 24.00,113.79 C24.00,114.18 29.91,114.28 37.14,114.00 L 50.29,113.50 L 61.65,92.21 M 115.56,94.71 C109.94,84.15 98.45,62.51 90.03,46.64 L 74.71,17.79 L 68.38,29.64 C64.89,36.16 62.03,42.10 62.02,42.83 C62.01,43.57 68.08,55.54 75.50,69.45 C82.92,83.35 89.00,95.01 89.00,95.36 C89.00,95.71 85.40,96.00 81.00,96.00 C76.60,96.00 73.00,96.22 73.00,96.49 C73.00,96.76 74.99,100.93 77.42,105.74 L 81.85,114.50 L 103.81,114.21 L 125.78,113.93 L 115.56,94.71 Z" fill="rgba(0,0,0,1)"/>
</g>
</svg>