<svg xmlns="http://www.w3.org/2000/svg" width="150" height="150" viewBox="0 0 150 150">
<g>
<path d="M 38.74,102.00 C37.22,94.03 35.99,86.04 35.99,84.25 C36.00,81.47 35.65,81.00 33.57,81.00 C27.75,81.00 27.13,76.33 32.42,72.34 C34.72,70.61 34.83,70.08 34.29,63.63 L 33.71,56.77 L 29.14,57.39 C26.63,57.74 24.25,58.35 23.85,58.76 C22.89,59.73 20.24,80.73 19.40,94.00 C18.71,104.86 17.99,107.00 15.00,107.00 C10.97,107.00 10.54,104.70 11.88,90.17 C12.57,82.65 13.74,73.12 14.47,69.00 C15.20,64.88 15.73,61.42 15.64,61.32 C15.55,61.23 13.59,61.65 11.27,62.27 C6.40,63.57 5.87,63.26 5.66,58.98 C5.51,55.94 5.75,55.73 11.53,53.94 L 17.57,52.06 L 19.35,45.28 C21.61,36.65 28.45,22.37 30.95,21.03 C34.97,18.87 36.19,22.30 37.59,39.65 L 38.24,47.79 L 49.41,48.15 C62.40,48.56 66.00,50.04 66.00,54.95 C66.00,58.78 60.91,63.11 49.10,69.34 C44.12,71.96 39.75,74.60 39.37,75.21 C38.89,75.99 42.23,76.16 51.10,75.78 C57.92,75.50 64.40,75.59 65.50,75.98 L 67.50,76.70 L 65.50,77.27 C64.40,77.58 58.21,78.40 51.75,79.08 L 40.00,80.32 L 40.00,86.24 C40.00,89.50 40.49,96.30 41.09,101.37 C42.94,117.11 41.68,117.45 38.74,102.00 M 48.02,63.62 C52.13,61.20 56.36,58.28 57.40,57.12 L 59.31,55.00 L 51.40,55.01 C39.20,55.03 39.00,55.15 39.00,62.12 C39.00,65.35 39.35,68.00 39.77,68.00 C40.19,68.00 43.91,66.03 48.02,63.62 M 30.77,49.37 C32.91,48.79 33.00,48.41 32.43,42.13 C31.38,30.43 30.81,30.60 26.97,43.75 C24.97,50.59 25.16,50.87 30.77,49.37 Z" fill="rgba(0,0,0,1)"/>
</g>
</svg>